Coordinates
version=1
nRows=32
nColumns=22
inDegrees=yes

Units are S.I. units (second, meters, Newtons, ...)
If the header above contains a line with 'inDegrees', this indicates whether rotational values are in degrees (yes) or radians (no).

endheader
time	pelvis_tilt	pelvis_list	pelvis_rotation	pelvis_tx	pelvis_ty	pelvis_tz	hip_flexion_r	hip_adduction_r	hip_rotation_r	knee_angle_r	ankle_angle_r	subtalar_angle_r	hip_flexion_l	hip_adduction_l	hip_rotation_l	knee_angle_l	ankle_angle_l	subtalar_angle_l	lumbar_extension	lumbar_bending	lumbar_rotation
      1.56000000	     -5.90642056	     -6.24359864	     12.86842538	      1.08231393	      0.96322268	     -0.28837884	     12.87395477	      5.80438690	    -12.31463594	    -15.80328944	      8.17535436	      0.10107401	     15.80029886	     -7.73280582	     13.89527590	    -16.21971494	      9.44982136	      4.92024647	     -1.70963923	      8.48813609	     -5.96924843
      1.57000000	     -5.96426203	     -6.13904553	     13.25198070	      1.07999878	      0.96341610	     -0.28834586	     13.05885606	      5.59353857	    -12.61919560	    -15.80831723	      8.09017443	      0.11616865	     15.86452561	     -7.49458294	     14.33021672	    -16.42752323	      9.90621493	      4.97639766	     -1.85241747	      8.46089027	     -6.03380165
      1.58000000	     -5.99944582	     -6.03895171	     13.61175461	      1.07778991	      0.96362908	     -0.28829361	     13.20623741	      5.39900709	    -12.90995101	    -15.80163249	      8.02446334	      0.12116746	     15.88297422	     -7.28128884	     14.67258960	    -16.71024884	     10.41434730	      4.95984828	     -1.99575929	      8.43343885	     -6.07984661
      1.59000000	     -6.03784400	     -5.95471567	     13.94872715	      1.07566801	      0.96383495	     -0.28822451	     13.34733470	      5.22658284	    -13.17200564	    -15.78213772	      7.92977070	      0.12430913	     15.87884472	     -7.09959405	     14.94713288	    -17.04604951	     10.93278138	      4.90748689	     -2.10673512	      8.41349974	     -6.12732230
      1.60000000	     -6.07224345	     -5.88158504	     14.26204206	      1.07361015	      0.96403127	     -0.28810612	     13.48269318	      5.07354318	    -13.41256301	    -15.76075775	      7.83145556	      0.12182306	     15.84611307	     -6.95418929	     15.13417690	    -17.42805232	     11.44129191	      4.81971103	     -2.20041995	      8.39168486	     -6.16509275
      1.61000000	     -6.09842151	     -5.79421096	     14.50555288	      1.07165980	      0.96424474	     -0.28792022	     13.59682983	      4.92597836	    -13.55965578	    -15.73444575	      7.69895056	      0.12828288	     15.74487468	     -6.83818254	     15.17277770	    -17.81552667	     11.93412746	      4.72681054	     -2.28948784	      8.34560356	     -6.16032571
      1.62000000	     -6.13450646	     -5.76687510	     14.78828836	      1.06966569	      0.96437592	     -0.28778062	     13.75054035	      4.81762555	    -13.81457830	    -15.73031987	      7.61587320	      0.10842722	     15.67985359	     -6.77940806	     15.24147484	    -18.26522514	     12.37299806	      4.57198296	     -2.33240603	      8.35799123	     -6.20466318
      1.63000000	     -6.15311547	     -5.71711183	     14.98633955	      1.06777294	      0.96452677	     -0.28753868	     13.88124605	      4.71184200	    -13.97022854	    -15.73640064	      7.52972211	      0.10402130	     15.52549104	     -6.75607599	     15.15135576	    -18.68977808	     12.79039209	      4.45773284	     -2.38857015	      8.33454831	     -6.17507896
      1.64000000	     -6.17261610	     -5.67019747	     15.16204400	      1.06589735	      0.96466458	     -0.28730264	     14.01824934	      4.60910317	    -14.10272726	    -15.75099099	      7.41472450	      0.10814002	     15.32768381	     -6.76229401	     15.01836182	    -19.09037842	     13.16995548	      4.36223656	     -2.42853789	      8.30848812	     -6.16431409
      1.65000000	     -6.18846076	     -5.64199328	     15.31893794	      1.06404977	      0.96477144	     -0.28708795	     14.16353875	      4.52412803	    -14.23690554	    -15.78283087	      7.32276743	      0.10917905	     15.09611853	     -6.80917470	     14.87104136	    -19.48114333	     13.51655716	      4.27199768	     -2.45142296	      8.30083855	     -6.14816604
      1.66000000	     -6.20221466	     -5.62261509	     15.46276496	      1.06223043	      0.96485608	     -0.28689391	     14.31222441	      4.44799710	    -14.36189050	    -15.82363925	      7.23521666	      0.10942912	     14.82560705	     -6.88481722	     14.72846092	    -19.84785003	     13.82501204	      4.19548063	     -2.45785069	      8.29662667	     -6.13687484
      1.67000000	     -6.21257682	     -5.60554918	     15.60010449	      1.06044975	      0.96492320	     -0.28673635	     14.45919081	      4.37337037	    -14.48387246	    -15.87230079	      7.15116588	      0.10973050	     14.51260557	     -6.97917741	     14.60322013	    -20.18674454	     14.09879888	      4.14060392	     -2.44885758	      8.29175947	     -6.13971554
      1.68000000	     -6.20282684	     -5.60276710	     15.74652095	      1.05871807	      0.96498217	     -0.28663079	     14.58838709	      4.31470631	    -14.61515649	    -15.92790297	      7.08577074	      0.10064379	     14.14817900	     -7.10341308	     14.52526794	    -20.50005414	     14.33986273	      4.11659884	     -2.43736087	      8.30319347	     -6.17829936
      1.69000000	     -6.21043097	     -5.58093656	     15.88520763	      1.05703189	      0.96501411	     -0.28658232	     14.72547261	      4.22943526	    -14.73966331	    -15.98179741	      7.00137527	      0.10168308	     13.75800895	     -7.21287458	     14.46408329	    -20.78679015	     14.53513540	      4.11308990	     -2.39173121	      8.28469508	     -6.21478486
      1.70000000	     -6.16688807	     -5.57709528	     16.06637869	      1.05539838	      0.96507419	     -0.28661230	     14.80638280	      4.16771407	    -14.90763741	    -16.03156223	      6.95780972	      0.08481728	     13.29413828	     -7.35525615	     14.49491087	    -21.04912950	     14.69199888	      4.18191290	     -2.37252360	      8.29443277	     -6.32686838
      1.71000000	     -6.13528448	     -5.56372834	     16.23668259	      1.05378106	      0.96510658	     -0.28668665	     14.89711198	      4.09213808	    -15.05739395	    -16.08429442	      6.89738709	      0.07032253	     12.81536619	     -7.49092483	     14.53510199	    -21.30400250	     14.80794451	      4.26107838	     -2.32751490	      8.28663510	     -6.42687741
      1.72000000	     -6.09814899	     -5.55171572	     16.41551957	      1.05218007	      0.96512280	     -0.28682050	     14.98174260	      4.01409539	    -15.21144981	    -16.14119192	      6.84644936	      0.05543444	     12.31519780	     -7.63054321	     14.60631425	    -21.55974577	     14.88740672	      4.34189843	     -2.26945649	      8.27782973	     -6.54229640
      1.73000000	     -6.05099239	     -5.54166160	     16.60288050	      1.05058666	      0.96512982	     -0.28699653	     15.05619090	      3.93719014	    -15.37211372	    -16.19981671	      6.79996820	      0.03953904	     11.79544111	     -7.77581650	     14.70114937	    -21.82441208	     14.94163878	      4.43349192	     -2.20646164	      8.26723126	     -6.67307770
      1.74000000	     -5.99244542	     -5.53462656	     16.80230936	      1.04899301	      0.96513340	     -0.28723830	     15.11765240	      3.86032875	    -15.53708434	    -16.25757590	      6.75596243	      0.02244395	     11.26287230	     -7.92576074	     14.80726073	    -22.10799330	     14.98323905	      4.55475216	     -2.13776319	      8.26085734	     -6.81433596
      1.75000000	     -5.92870990	     -5.53006829	     17.00713737	      1.04739074	      0.96512566	     -0.28750965	     15.17671081	      3.78312254	    -15.71042321	    -16.32017201	      6.71901038	      0.00765840	     10.73046477	     -8.07989788	     14.91139533	    -22.42362160	     15.02397709	      4.70962379	     -2.06121429	      8.25102258	     -6.96445844
      1.76000000	     -5.85680363	     -5.52955954	     17.21676673	      1.04576243	      0.96511583	     -0.28781795	     15.23183709	      3.70733408	    -15.88909116	    -16.38753977	      6.68182327	     -0.00312679	     10.20275983	     -8.23860554	     15.00701482	    -22.78017950	     15.06657402	      4.91512769	     -1.98146333	      8.24249299	     -7.12147082
      1.77000000	     -5.77915884	     -5.53194468	     17.42457854	      1.04409713	      0.96510622	     -0.28815982	     15.28555424	      3.63202647	    -16.07119738	    -16.45895050	      6.64404032	     -0.00829757	      9.68445976	     -8.39915888	     15.08593894	    -23.18344172	     15.10636700	      5.16623447	     -1.89913032	      8.23493944	     -7.27787538
      1.78000000	     -5.69376032	     -5.53639357	     17.62771696	      1.04237950	      0.96510477	     -0.28853323	     15.33538966	      3.55765703	    -16.25230480	    -16.53201029	      6.60057488	     -0.00674504	      9.17548500	     -8.56062520	     15.14518588	    -23.63461127	     15.13056299	      5.45363298	     -1.81970757	      8.22851272	     -7.42855991
      1.79000000	     -5.60447796	     -5.53909859	     17.81696285	      1.04059087	      0.96511882	     -0.28893636	     15.37178567	      3.48703721	    -16.39384350	    -16.57994193	      6.53654486	      0.00361780	      8.68384709	     -8.71503107	     15.17934892	    -24.14309945	     15.12286711	      5.78964103	     -1.74303826	      8.21986180	     -7.55923979
      1.80000000	     -5.51453921	     -5.54456987	     17.98667755	      1.03873873	      0.96513077	     -0.28934710	     15.43479582	      3.41240267	    -16.54722380	    -16.67148291	      6.48916894	      0.01557178	      8.18591263	     -8.86704846	     15.21868400	    -24.65971966	     15.06672728	      5.99175408	     -1.66509645	      8.21004819	     -7.68282675
      1.81000000	     -5.41380486	     -5.54884184	     18.15244325	      1.03682189	      0.96516872	     -0.28980525	     15.47236162	      3.34235459	    -16.67879575	    -16.72991058	      6.42010498	      0.03542894	      7.69314984	     -9.01013571	     15.26181900	    -25.21289635	     14.96316585	      6.18225782	     -1.59562154	      8.20063555	     -7.79435431
      1.82000000	     -5.33345386	     -5.54605693	     18.28607726	      1.03483116	      0.96518700	     -0.29026917	     15.53441973	      3.26212710	    -16.77583165	    -16.79056495	      6.34394502	      0.05247390	      7.23184503	     -9.13351092	     15.26179374	    -25.79624030	     14.80436451	      6.27037698	     -1.50820150	      8.17374519	     -7.87439505
      1.83000000	     -5.21179124	     -5.54892589	     18.45371024	      1.03278164	      0.96526033	     -0.29082997	     15.55010625	      3.19043069	    -16.90461251	    -16.83910769	      6.26915130	      0.07926242	      6.73139820	     -9.25451961	     15.36560102	    -26.36882086	     14.63403195	      6.39522945	     -1.45410261	      8.16782698	     -7.98037984
      1.84000000	     -5.10684228	     -5.54777500	     18.59378961	      1.03065547	      0.96531221	     -0.29138976	     15.58652364	      3.11224343	    -17.00796318	    -16.88680083	      6.18487084	      0.10560113	      6.26413924	     -9.36102094	     15.42748046	    -26.96113739	     14.43854406	      6.47110600	     -1.38605317	      8.14731849	     -8.05618438
      1.85000000	     -5.01107350	     -5.54732033	     18.72644406	      1.02844239	      0.96534813	     -0.29197004	     15.64107224	      3.02826089	    -17.10884167	    -16.94121913	      6.09550807	      0.12881048	      5.82107857	     -9.45541276	     15.49656729	    -27.55556901	     14.23842872	      6.51445248	     -1.30945857	      8.12067038	     -8.12340313
      1.86000000	     -4.92203871	     -5.54971862	     18.85040284	      1.02613517	      0.96536759	     -0.29256355	     15.70926251	      2.94323493	    -17.20290755	    -16.99592370	      6.00011710	      0.15065968	      5.40334812	     -9.54182445	     15.56780184	    -28.15022195	     14.05816199	      6.54526235	     -1.22841855	      8.08998483	     -8.18219935
      1.87000000	     -4.84268346	     -5.55171784	     18.95964399	      1.02373636	      0.96536718	     -0.29318000	     15.79385710	      2.85293802	    -17.28058911	    -17.05308182	      5.89231548	      0.16999124	      5.01568709	     -9.62040704	     15.60722451	    -28.74322302	     13.89883989	      6.56779829	     -1.14112910	      8.05512886	     -8.22545865
